####
#
# OBJ File Generated by Meshlab
#
####
# Object Circular_frustum.obj
#
# Vertices: 120
# Faces: 236
#
####
vn -0.000000 -2.099681 -2.961292
v 41.703064 0.000000 0.000000
vn 0.314767 -2.099682 -2.944518
v 46.135826 0.000000 0.236258
vn 0.000000 -6.283195 0.000000
v 41.703064 0.000000 41.703064
vn -0.314767 -2.099682 -2.944518
v 37.270302 0.000000 0.236258
vn -1.223642 -2.099682 -2.696657
v 24.470850 0.000000 3.726806
vn -0.930073 -2.099682 -2.811443
v 28.605103 0.000000 2.110276
vn -0.625966 -2.099682 -2.894377
v 32.887760 0.000000 0.942349
vn -2.008680 -2.099682 -2.175881
v 13.415383 0.000000 11.060732
vn -1.766018 -2.099681 -2.377063
v 16.832718 0.000000 8.227530
vn -1.503346 -2.099682 -2.551313
v 20.531847 0.000000 5.773619
vn -2.590431 -2.099680 -1.434898
v 5.222764 0.000000 21.495808
vn -2.423233 -2.099682 -1.702114
v 7.577333 0.000000 17.732668
vn -2.228582 -2.099682 -1.950045
v 10.318559 0.000000 14.241123
vn -2.910014 -2.099681 -0.548694
v 0.722125 0.000000 33.975956
vn -2.835206 -2.099682 -0.854902
v 1.775634 0.000000 29.663725
vn -2.728274 -2.099683 -1.151422
v 3.281534 0.000000 25.487906
vn -2.935093 -2.099682 0.393039
v 0.368956 0.000000 47.238125
vn -2.960243 -2.099682 0.078831
v 0.014782 0.000000 42.813221
vn -2.951852 -2.099683 -0.236269
v 0.132952 0.000000 38.375740
vn -2.663126 -2.099682 1.294996
v 4.198995 0.000000 59.940117
vn -2.785690 -2.099681 1.004586
v 2.472982 0.000000 55.850365
vn -2.876689 -2.099681 0.702794
v 1.191463 0.000000 51.600315
vn -2.121639 -2.099684 2.065892
v 11.824625 0.000000 70.796432
vn -2.329208 -2.099680 1.828671
v 8.901455 0.000000 67.455734
vn -2.510390 -2.099683 1.570731
v 6.349944 0.000000 63.823238
vn -1.365430 -2.099682 2.627709
v 22.474094 0.000000 78.708359
vn -1.637001 -2.099683 2.467687
v 18.649609 0.000000 76.454803
vn -1.890028 -2.099679 2.279704
v 15.086327 0.000000 73.807503
vn -0.471033 -2.099681 2.923591
v 35.069630 0.000000 82.875175
vn -0.779124 -2.099681 2.856961
v 30.730883 0.000000 81.936836
vn -1.078386 -2.099681 2.757958
v 26.516453 0.000000 80.542633
vn 0.471033 -2.099682 2.923590
v 48.336498 0.000000 82.875175
vn 0.157606 -2.099682 2.957096
v 43.922592 0.000000 83.347015
vn -0.157606 -2.099682 2.957096
v 39.483536 0.000000 83.347015
vn 1.365430 -2.099683 2.627709
v 60.932034 0.000000 78.708359
vn 1.078386 -2.099681 2.757958
v 56.889675 0.000000 80.542633
vn 0.779124 -2.099682 2.856960
v 52.675247 0.000000 81.936836
vn 2.121638 -2.099684 2.065892
v 71.581505 0.000000 70.796432
vn 1.890028 -2.099679 2.279704
v 68.319801 0.000000 73.807503
vn 1.637002 -2.099681 2.467689
v 64.756523 0.000000 76.454803
vn 2.663126 -2.099682 1.294995
v 79.207130 0.000000 59.940117
vn 2.510392 -2.099683 1.570730
v 77.056183 0.000000 63.823238
vn 2.329208 -2.099679 1.828669
v 74.504677 0.000000 67.455734
vn 2.935094 -2.099684 0.393039
v 83.037170 0.000000 47.238125
vn 2.876687 -2.099680 0.702793
v 82.214668 0.000000 51.600315
vn 2.785688 -2.099682 1.004588
v 80.933144 0.000000 55.850365
vn 2.910017 -2.099679 -0.548695
v 82.684006 0.000000 33.975956
vn 2.951853 -2.099683 -0.236269
v 83.273178 0.000000 38.375740
vn 2.960243 -2.099680 0.078832
v 83.391350 0.000000 42.813221
vn 2.590429 -2.099682 -1.434896
v 78.183365 0.000000 21.495808
vn 2.728274 -2.099682 -1.151421
v 80.124596 0.000000 25.487906
vn 2.835207 -2.099683 -0.854903
v 81.630493 0.000000 29.663725
vn 2.008679 -2.099682 -2.175880
v 69.990746 0.000000 11.060732
vn 2.228582 -2.099682 -1.950045
v 73.087570 0.000000 14.241123
vn 2.423233 -2.099682 -1.702114
v 75.828796 0.000000 17.732668
vn 1.223642 -2.099682 -2.696657
v 58.935276 0.000000 3.726806
vn 1.503346 -2.099681 -2.551313
v 62.874283 0.000000 5.773619
vn 1.766019 -2.099681 -2.377064
v 66.573410 0.000000 8.227530
vn 0.625965 -2.099682 -2.894377
v 50.518368 0.000000 0.942349
vn 0.930073 -2.099682 -2.811444
v 54.801025 0.000000 2.110276
vn 0.000001 3.989805 -3.022363
v 41.703064 47.048870 14.861850
vn -0.321257 3.989806 -3.005241
v 38.850018 47.048870 15.013911
vn 0.000000 6.283189 0.000000
v 41.703064 47.048870 41.703064
vn 0.321258 3.989806 -3.005241
v 44.556110 47.048870 15.013911
vn 1.248878 3.989805 -2.752268
v 52.794182 47.048870 17.260521
vn 0.949254 3.989805 -2.869424
v 50.133266 47.048870 16.220079
vn 0.638874 3.989805 -2.954068
v 47.376831 47.048870 15.468370
vn 2.050105 3.989805 -2.220754
v 59.909779 47.048870 21.980833
vn 1.802437 3.989805 -2.426086
v 57.710289 47.048870 20.157309
vn 1.534350 3.989807 -2.603929
v 55.329430 47.048870 18.577908
vn 2.643851 3.989803 -1.464490
v 65.182770 47.048870 28.697130
vn 2.473206 3.989807 -1.737217
v 63.667301 47.048870 26.275072
vn 2.274544 3.989805 -1.990259
v 61.902977 47.048870 24.027819
vn 2.970029 3.989807 -0.560009
v 68.079498 47.048870 36.729691
vn 2.893677 3.989804 -0.872530
v 67.401436 47.048870 33.954224
vn 2.784539 3.989805 -1.175167
v 66.432198 47.048870 31.266552
vn 2.995623 3.989806 0.401147
v 68.306808 47.048870 45.265579
vn 3.021291 3.989804 0.080458
v 68.534767 47.048870 42.417591
vn 3.012728 3.989805 -0.241143
v 68.458710 47.048870 39.561508
vn 2.718047 3.989806 1.321701
v 65.841690 47.048870 53.440922
vn 2.843137 3.989805 1.025303
v 66.952599 47.048870 50.808647
vn 2.936013 3.989805 0.717288
v 67.777420 47.048870 48.073200
vn 2.165391 3.989806 2.108497
v 60.933632 47.048870 60.428341
vn 2.377245 3.989804 1.866383
v 62.815063 47.048870 58.278175
vn 2.562162 3.989805 1.603123
v 64.457283 47.048870 55.940205
vn 1.393588 3.989807 2.681901
v 54.079346 47.048870 65.520668
vn 1.670761 3.989803 2.518578
v 56.540890 47.048870 64.070221
vn 1.929007 3.989806 2.326718
v 58.834312 47.048870 62.366341
vn 0.480748 3.989804 2.983884
v 45.972523 47.048870 68.202545
vn 0.795192 3.989806 2.915878
v 48.765057 47.048870 67.598602
vn 1.100625 3.989805 2.814836
v 51.477577 47.048870 66.701256
vn -0.480748 3.989804 2.983884
v 37.433605 47.048870 68.202545
vn -0.160856 3.989806 3.018079
v 40.274517 47.048870 68.506233
vn 0.160856 3.989806 3.018079
v 43.131611 47.048870 68.506233
vn -1.393588 3.989806 2.681900
v 29.326782 47.048870 65.520668
vn -1.100626 3.989805 2.814836
v 31.928553 47.048870 66.701256
vn -0.795192 3.989806 2.915878
v 34.641071 47.048870 67.598602
vn -2.165391 3.989806 2.108497
v 22.472496 47.048870 60.428341
vn -1.929006 3.989807 2.326719
v 24.571815 47.048870 62.366341
vn -1.670762 3.989804 2.518578
v 26.865240 47.048870 64.070221
vn -2.718048 3.989805 1.321700
v 17.564434 47.048870 53.440922
vn -2.562162 3.989806 1.603123
v 18.948843 47.048870 55.940205
vn -2.377244 3.989804 1.866384
v 20.591064 47.048870 58.278175
vn -2.995624 3.989805 0.401144
v 15.099319 47.048870 45.265579
vn -2.936014 3.989806 0.717287
v 15.628707 47.048870 48.073200
vn -2.843138 3.989805 1.025302
v 16.453527 47.048870 50.808647
vn -2.970028 3.989805 -0.560009
v 15.326629 47.048870 36.729691
vn -3.012728 3.989805 -0.241142
v 14.947420 47.048870 39.561508
vn -3.021292 3.989805 0.080456
v 14.871363 47.048870 42.417591
vn -2.643852 3.989805 -1.464489
v 18.223360 47.048870 28.697130
vn -2.784539 3.989806 -1.175167
v 16.973932 47.048870 31.266552
vn -2.893676 3.989805 -0.872532
v 16.004694 47.048870 33.954224
vn -2.050105 3.989804 -2.220755
v 23.496349 47.048870 21.980833
vn -2.274543 3.989805 -1.990259
v 21.503151 47.048870 24.027819
vn -2.473208 3.989806 -1.737216
v 19.738825 47.048870 26.275072
vn -1.248878 3.989806 -2.752268
v 30.611948 47.048870 17.260521
vn -1.534349 3.989806 -2.603929
v 28.076698 47.048870 18.577908
vn -1.802437 3.989805 -2.426087
v 25.695841 47.048870 20.157309
vn -0.638874 3.989805 -2.954067
v 36.029297 47.048870 15.468370
vn -0.949254 3.989805 -2.869424
v 33.272861 47.048870 16.220079
# 120 vertices, 0 vertices normals

f 1//1 2//2 3//3
f 1//1 3//3 4//4
f 5//5 6//6 3//3
f 3//3 6//6 7//7
f 3//3 7//7 4//4
f 8//8 9//9 3//3
f 3//3 9//9 10//10
f 3//3 10//10 5//5
f 11//11 12//12 3//3
f 3//3 12//12 13//13
f 3//3 13//13 8//8
f 14//14 15//15 3//3
f 3//3 15//15 16//16
f 3//3 16//16 11//11
f 17//17 18//18 3//3
f 3//3 18//18 19//19
f 3//3 19//19 14//14
f 20//20 21//21 3//3
f 3//3 21//21 22//22
f 3//3 22//22 17//17
f 23//23 24//24 3//3
f 3//3 24//24 25//25
f 3//3 25//25 20//20
f 26//26 27//27 3//3
f 3//3 27//27 28//28
f 3//3 28//28 23//23
f 29//29 30//30 3//3
f 3//3 30//30 31//31
f 3//3 31//31 26//26
f 32//32 33//33 3//3
f 3//3 33//33 34//34
f 3//3 34//34 29//29
f 35//35 36//36 3//3
f 3//3 36//36 37//37
f 3//3 37//37 32//32
f 38//38 39//39 3//3
f 3//3 39//39 40//40
f 3//3 40//40 35//35
f 41//41 42//42 3//3
f 3//3 42//42 43//43
f 3//3 43//43 38//38
f 44//44 45//45 3//3
f 3//3 45//45 46//46
f 3//3 46//46 41//41
f 47//47 48//48 3//3
f 3//3 48//48 49//49
f 3//3 49//49 44//44
f 50//50 51//51 3//3
f 3//3 51//51 52//52
f 3//3 52//52 47//47
f 53//53 54//54 3//3
f 3//3 54//54 55//55
f 3//3 55//55 50//50
f 56//56 57//57 3//3
f 3//3 57//57 58//58
f 3//3 58//58 53//53
f 2//2 59//59 3//3
f 3//3 59//59 60//60
f 3//3 60//60 56//56
f 61//61 62//62 63//63
f 61//61 63//63 64//64
f 65//65 66//66 63//63
f 63//63 66//66 67//67
f 63//63 67//67 64//64
f 68//68 69//69 63//63
f 63//63 69//69 70//70
f 63//63 70//70 65//65
f 71//71 72//72 63//63
f 63//63 72//72 73//73
f 63//63 73//73 68//68
f 74//74 75//75 63//63
f 63//63 75//75 76//76
f 63//63 76//76 71//71
f 77//77 78//78 63//63
f 63//63 78//78 79//79
f 63//63 79//79 74//74
f 80//80 81//81 63//63
f 63//63 81//81 82//82
f 63//63 82//82 77//77
f 83//83 84//84 63//63
f 63//63 84//84 85//85
f 63//63 85//85 80//80
f 86//86 87//87 63//63
f 63//63 87//87 88//88
f 63//63 88//88 83//83
f 89//89 90//90 63//63
f 63//63 90//90 91//91
f 63//63 91//91 86//86
f 92//92 93//93 63//63
f 63//63 93//93 94//94
f 63//63 94//94 89//89
f 95//95 96//96 63//63
f 63//63 96//96 97//97
f 63//63 97//97 92//92
f 98//98 99//99 63//63
f 63//63 99//99 100//100
f 63//63 100//100 95//95
f 101//101 102//102 63//63
f 63//63 102//102 103//103
f 63//63 103//103 98//98
f 104//104 105//105 63//63
f 63//63 105//105 106//106
f 63//63 106//106 101//101
f 107//107 108//108 63//63
f 63//63 108//108 109//109
f 63//63 109//109 104//104
f 110//110 111//111 63//63
f 63//63 111//111 112//112
f 63//63 112//112 107//107
f 113//113 114//114 63//63
f 63//63 114//114 115//115
f 63//63 115//115 110//110
f 116//116 117//117 63//63
f 63//63 117//117 118//118
f 63//63 118//118 113//113
f 62//62 119//119 63//63
f 63//63 119//119 120//120
f 63//63 120//120 116//116
f 1//1 64//64 2//2
f 2//2 64//64 67//67
f 2//2 67//67 59//59
f 59//59 67//67 66//66
f 59//59 66//66 60//60
f 60//60 66//66 65//65
f 60//60 65//65 56//56
f 56//56 65//65 70//70
f 56//56 70//70 57//57
f 57//57 70//70 69//69
f 57//57 69//69 58//58
f 58//58 69//69 68//68
f 58//58 68//68 53//53
f 53//53 68//68 73//73
f 53//53 73//73 54//54
f 54//54 73//73 72//72
f 54//54 72//72 55//55
f 55//55 72//72 71//71
f 55//55 71//71 50//50
f 50//50 71//71 76//76
f 50//50 76//76 51//51
f 51//51 76//76 75//75
f 51//51 75//75 52//52
f 52//52 75//75 74//74
f 52//52 74//74 47//47
f 47//47 74//74 79//79
f 47//47 79//79 48//48
f 48//48 79//79 78//78
f 48//48 78//78 49//49
f 49//49 78//78 77//77
f 49//49 77//77 44//44
f 44//44 77//77 82//82
f 44//44 82//82 45//45
f 45//45 82//82 81//81
f 45//45 81//81 46//46
f 46//46 81//81 80//80
f 46//46 80//80 41//41
f 41//41 80//80 85//85
f 41//41 85//85 42//42
f 42//42 85//85 84//84
f 42//42 84//84 43//43
f 43//43 84//84 83//83
f 43//43 83//83 38//38
f 38//38 83//83 88//88
f 38//38 88//88 39//39
f 39//39 88//88 87//87
f 39//39 87//87 40//40
f 40//40 87//87 86//86
f 40//40 86//86 35//35
f 35//35 86//86 91//91
f 35//35 91//91 36//36
f 36//36 91//91 90//90
f 36//36 90//90 37//37
f 37//37 90//90 89//89
f 37//37 89//89 32//32
f 32//32 89//89 94//94
f 32//32 94//94 33//33
f 33//33 94//94 93//93
f 33//33 93//93 34//34
f 34//34 93//93 92//92
f 34//34 92//92 29//29
f 29//29 92//92 97//97
f 29//29 97//97 30//30
f 30//30 97//97 96//96
f 30//30 96//96 31//31
f 31//31 96//96 95//95
f 31//31 95//95 26//26
f 26//26 95//95 100//100
f 26//26 100//100 27//27
f 27//27 100//100 99//99
f 27//27 99//99 28//28
f 28//28 99//99 98//98
f 28//28 98//98 23//23
f 23//23 98//98 103//103
f 23//23 103//103 24//24
f 24//24 103//103 102//102
f 24//24 102//102 25//25
f 25//25 102//102 101//101
f 25//25 101//101 20//20
f 20//20 101//101 106//106
f 20//20 106//106 21//21
f 21//21 106//106 105//105
f 21//21 105//105 22//22
f 22//22 105//105 104//104
f 22//22 104//104 17//17
f 17//17 104//104 109//109
f 17//17 109//109 18//18
f 18//18 109//109 108//108
f 18//18 108//108 19//19
f 19//19 108//108 107//107
f 19//19 107//107 14//14
f 14//14 107//107 112//112
f 14//14 112//112 15//15
f 15//15 112//112 111//111
f 15//15 111//111 16//16
f 16//16 111//111 110//110
f 16//16 110//110 11//11
f 11//11 110//110 115//115
f 11//11 115//115 12//12
f 12//12 115//115 114//114
f 12//12 114//114 13//13
f 13//13 114//114 113//113
f 13//13 113//113 8//8
f 8//8 113//113 118//118
f 8//8 118//118 9//9
f 9//9 118//118 117//117
f 9//9 117//117 10//10
f 10//10 117//117 116//116
f 10//10 116//116 5//5
f 5//5 116//116 120//120
f 5//5 120//120 6//6
f 6//6 120//120 119//119
f 6//6 119//119 7//7
f 7//7 119//119 62//62
f 7//7 62//62 4//4
f 4//4 62//62 61//61
f 4//4 61//61 1//1
f 1//1 61//61 64//64
# 236 faces, 0 coords texture

# End of File
