####
#
# OBJ File Generated by Meshlab
#
####
# Object Cylinder.obj
#
# Vertices: 100
# Faces: 196
#
####
vn -0.000000 -3.013365 -3.135138
v 13.150090 0.000000 0.000000
vn 0.400912 -3.013364 -3.109398
v 14.831687 0.000000 0.107962
vn 0.000000 -6.283183 0.000000
v 13.150090 0.000000 13.150090
vn -1.176513 -3.013365 -2.906012
v 8.215295 0.000000 0.961051
vn -0.795242 -3.013364 -3.032603
v 9.814509 0.000000 0.430075
vn -0.400912 -3.013364 -3.109399
v 11.468494 0.000000 0.107962
vn -2.181061 -3.013364 -2.252125
v 4.001802 0.000000 3.703731
vn -1.875159 -3.013365 -2.512542
v 5.284883 0.000000 2.611428
vn -1.538467 -3.013364 -2.731704
v 6.697110 0.000000 1.692170
vn -2.866810 -3.013365 -1.269052
v 1.125482 0.000000 7.827153
vn -2.680991 -3.013364 -1.625232
v 1.904885 0.000000 6.333181
vn -2.451150 -3.013364 -1.954727
v 2.868936 0.000000 4.951143
vn -3.133527 -3.013364 -0.100486
v 0.006756 0.000000 12.728609
vn -3.094951 -3.013364 -0.500367
v 0.168560 0.000000 11.051337
vn -3.005556 -3.013364 -0.892034
v 0.543521 0.000000 9.408526
vn -2.942228 -3.013364 1.082767
v 0.809145 0.000000 17.691671
vn -3.056534 -3.013364 0.697634
v 0.329700 0.000000 16.076262
vn -3.120651 -3.013365 0.301046
v 0.060765 0.000000 14.412802
vn -2.320874 -3.013364 2.107756
v 3.415368 0.000000 21.990908
vn -2.571353 -3.013365 1.793665
v 2.364751 0.000000 20.673475
vn -2.779611 -3.013364 1.450122
v 1.491229 0.000000 19.232512
vn -1.360285 -3.013365 2.824662
v 7.444480 0.000000 24.997911
vn -1.710326 -3.013364 2.627522
v 5.976257 0.000000 24.171024
vn -2.032285 -3.013364 2.387239
v 4.625828 0.000000 23.163174
vn -0.200869 -3.013364 3.128696
v 12.307561 0.000000 26.273163
vn -0.599310 -3.013364 3.077323
v 10.636337 0.000000 26.057682
vn -0.987909 -3.013365 2.975420
v 9.006389 0.000000 25.630259
vn 0.987908 -3.013365 2.975421
v 17.293791 0.000000 25.630259
vn 0.599310 -3.013364 3.077323
v 15.663843 0.000000 26.057682
vn 0.200869 -3.013364 3.128696
v 13.992620 0.000000 26.273163
vn 2.032285 -3.013364 2.387239
v 21.674353 0.000000 23.163174
vn 1.710327 -3.013365 2.627522
v 20.323923 0.000000 24.171024
vn 1.360285 -3.013364 2.824662
v 18.855701 0.000000 24.997911
vn 2.779611 -3.013363 1.450121
v 24.808952 0.000000 19.232512
vn 2.571353 -3.013365 1.793665
v 23.935431 0.000000 20.673475
vn 2.320874 -3.013364 2.107756
v 22.884813 0.000000 21.990908
vn 3.120651 -3.013364 0.301046
v 26.239416 0.000000 14.412802
vn 3.056534 -3.013365 0.697634
v 25.970480 0.000000 16.076262
vn 2.942229 -3.013365 1.082766
v 25.491035 0.000000 17.691671
vn 3.005555 -3.013362 -0.892035
v 25.756660 0.000000 9.408526
vn 3.094951 -3.013365 -0.500367
v 26.131620 0.000000 11.051337
vn 3.133527 -3.013365 -0.100486
v 26.293425 0.000000 12.728609
vn 2.451149 -3.013364 -1.954727
v 23.431246 0.000000 4.951143
vn 2.680992 -3.013363 -1.625231
v 24.395296 0.000000 6.333181
vn 2.866810 -3.013367 -1.269052
v 25.174698 0.000000 7.827153
vn 1.538467 -3.013363 -2.731704
v 19.603071 0.000000 1.692170
vn 1.875160 -3.013365 -2.512542
v 21.015297 0.000000 2.611428
vn 2.181060 -3.013365 -2.252125
v 22.298378 0.000000 3.703731
vn 0.795243 -3.013364 -3.032603
v 16.485672 0.000000 0.430075
vn 1.176513 -3.013365 -2.906012
v 18.084885 0.000000 0.961051
vn -0.000000 3.013365 -3.135138
v 13.150090 42.829117 0.000000
vn -0.400912 3.013364 -3.109398
v 11.468494 42.829117 0.107962
vn 0.000000 6.283183 0.000000
v 13.150090 42.829117 13.150090
vn 1.176514 3.013365 -2.906012
v 18.084885 42.829117 0.961051
vn 0.795243 3.013364 -3.032602
v 16.485672 42.829117 0.430075
vn 0.400912 3.013364 -3.109398
v 14.831687 42.829117 0.107962
vn 2.181060 3.013365 -2.252125
v 22.298378 42.829117 3.703731
vn 1.875160 3.013365 -2.512542
v 21.015297 42.829117 2.611428
vn 1.538467 3.013363 -2.731704
v 19.603071 42.829117 1.692170
vn 2.866810 3.013367 -1.269052
v 25.174698 42.829117 7.827153
vn 2.680991 3.013363 -1.625231
v 24.395296 42.829117 6.333181
vn 2.451149 3.013364 -1.954727
v 23.431246 42.829117 4.951143
vn 3.133527 3.013365 -0.100486
v 26.293425 42.829117 12.728609
vn 3.094951 3.013365 -0.500367
v 26.131620 42.829117 11.051337
vn 3.005555 3.013362 -0.892034
v 25.756660 42.829117 9.408526
vn 2.942229 3.013365 1.082766
v 25.491035 42.829117 17.691671
vn 3.056534 3.013365 0.697634
v 25.970480 42.829117 16.076262
vn 3.120651 3.013364 0.301046
v 26.239416 42.829117 14.412802
vn 2.320874 3.013364 2.107756
v 22.884813 42.829117 21.990908
vn 2.571353 3.013365 1.793665
v 23.935431 42.829117 20.673475
vn 2.779611 3.013363 1.450121
v 24.808952 42.829117 19.232512
vn 1.360285 3.013364 2.824662
v 18.855701 42.829117 24.997911
vn 1.710327 3.013365 2.627522
v 20.323923 42.829117 24.171024
vn 2.032285 3.013364 2.387239
v 21.674353 42.829117 23.163174
vn 0.200869 3.013364 3.128696
v 13.992620 42.829117 26.273163
vn 0.599310 3.013364 3.077323
v 15.663843 42.829117 26.057682
vn 0.987908 3.013365 2.975421
v 17.293791 42.829117 25.630259
vn -0.987909 3.013365 2.975420
v 9.006389 42.829117 25.630259
vn -0.599310 3.013364 3.077323
v 10.636337 42.829117 26.057682
vn -0.200869 3.013364 3.128696
v 12.307561 42.829117 26.273163
vn -2.032285 3.013364 2.387238
v 4.625828 42.829117 23.163174
vn -1.710326 3.013364 2.627522
v 5.976257 42.829117 24.171024
vn -1.360285 3.013365 2.824662
v 7.444480 42.829117 24.997911
vn -2.779611 3.013364 1.450122
v 1.491229 42.829117 19.232512
vn -2.571353 3.013365 1.793665
v 2.364751 42.829117 20.673475
vn -2.320874 3.013364 2.107756
v 3.415368 42.829117 21.990908
vn -3.120651 3.013365 0.301046
v 0.060765 42.829117 14.412802
vn -3.056534 3.013364 0.697634
v 0.329700 42.829117 16.076262
vn -2.942228 3.013364 1.082767
v 0.809145 42.829117 17.691671
vn -3.005556 3.013364 -0.892034
v 0.543521 42.829117 9.408526
vn -3.094951 3.013364 -0.500367
v 0.168560 42.829117 11.051337
vn -3.133527 3.013364 -0.100486
v 0.006756 42.829117 12.728609
vn -2.451149 3.013364 -1.954727
v 2.868936 42.829117 4.951143
vn -2.680991 3.013364 -1.625232
v 1.904885 42.829117 6.333181
vn -2.866810 3.013365 -1.269052
v 1.125482 42.829117 7.827153
vn -1.538467 3.013364 -2.731704
v 6.697110 42.829117 1.692170
vn -1.875159 3.013365 -2.512542
v 5.284883 42.829117 2.611428
vn -2.181061 3.013364 -2.252125
v 4.001802 42.829117 3.703731
vn -0.795242 3.013364 -3.032603
v 9.814509 42.829117 0.430075
vn -1.176513 3.013365 -2.906012
v 8.215295 42.829117 0.961051
# 100 vertices, 0 vertices normals

f 1//1 2//2 3//3
f 4//4 5//5 3//3
f 3//3 5//5 6//6
f 3//3 6//6 1//1
f 7//7 8//8 3//3
f 3//3 8//8 9//9
f 3//3 9//9 4//4
f 10//10 11//11 3//3
f 3//3 11//11 12//12
f 3//3 12//12 7//7
f 13//13 14//14 3//3
f 3//3 14//14 15//15
f 3//3 15//15 10//10
f 16//16 17//17 3//3
f 3//3 17//17 18//18
f 3//3 18//18 13//13
f 19//19 20//20 3//3
f 3//3 20//20 21//21
f 3//3 21//21 16//16
f 22//22 23//23 3//3
f 3//3 23//23 24//24
f 3//3 24//24 19//19
f 25//25 26//26 3//3
f 3//3 26//26 27//27
f 3//3 27//27 22//22
f 28//28 29//29 3//3
f 3//3 29//29 30//30
f 3//3 30//30 25//25
f 31//31 32//32 3//3
f 3//3 32//32 33//33
f 3//3 33//33 28//28
f 34//34 35//35 3//3
f 3//3 35//35 36//36
f 3//3 36//36 31//31
f 37//37 38//38 3//3
f 3//3 38//38 39//39
f 3//3 39//39 34//34
f 40//40 41//41 3//3
f 3//3 41//41 42//42
f 3//3 42//42 37//37
f 43//43 44//44 3//3
f 3//3 44//44 45//45
f 3//3 45//45 40//40
f 46//46 47//47 3//3
f 3//3 47//47 48//48
f 3//3 48//48 43//43
f 2//2 49//49 3//3
f 3//3 49//49 50//50
f 3//3 50//50 46//46
f 51//51 52//52 53//53
f 54//54 55//55 53//53
f 53//53 55//55 56//56
f 53//53 56//56 51//51
f 57//57 58//58 53//53
f 53//53 58//58 59//59
f 53//53 59//59 54//54
f 60//60 61//61 53//53
f 53//53 61//61 62//62
f 53//53 62//62 57//57
f 63//63 64//64 53//53
f 53//53 64//64 65//65
f 53//53 65//65 60//60
f 66//66 67//67 53//53
f 53//53 67//67 68//68
f 53//53 68//68 63//63
f 69//69 70//70 53//53
f 53//53 70//70 71//71
f 53//53 71//71 66//66
f 72//72 73//73 53//53
f 53//53 73//73 74//74
f 53//53 74//74 69//69
f 75//75 76//76 53//53
f 53//53 76//76 77//77
f 53//53 77//77 72//72
f 78//78 79//79 53//53
f 53//53 79//79 80//80
f 53//53 80//80 75//75
f 81//81 82//82 53//53
f 53//53 82//82 83//83
f 53//53 83//83 78//78
f 84//84 85//85 53//53
f 53//53 85//85 86//86
f 53//53 86//86 81//81
f 87//87 88//88 53//53
f 53//53 88//88 89//89
f 53//53 89//89 84//84
f 90//90 91//91 53//53
f 53//53 91//91 92//92
f 53//53 92//92 87//87
f 93//93 94//94 53//53
f 53//53 94//94 95//95
f 53//53 95//95 90//90
f 96//96 97//97 53//53
f 53//53 97//97 98//98
f 53//53 98//98 93//93
f 52//52 99//99 53//53
f 53//53 99//99 100//100
f 53//53 100//100 96//96
f 1//1 56//56 2//2
f 2//2 56//56 55//55
f 2//2 55//55 49//49
f 49//49 55//55 54//54
f 49//49 54//54 50//50
f 50//50 54//54 59//59
f 50//50 59//59 46//46
f 46//46 59//59 58//58
f 46//46 58//58 47//47
f 47//47 58//58 57//57
f 47//47 57//57 48//48
f 48//48 57//57 62//62
f 48//48 62//62 43//43
f 43//43 62//62 61//61
f 43//43 61//61 44//44
f 44//44 61//61 60//60
f 44//44 60//60 45//45
f 45//45 60//60 65//65
f 45//45 65//65 40//40
f 40//40 65//65 64//64
f 40//40 64//64 41//41
f 41//41 64//64 63//63
f 41//41 63//63 42//42
f 42//42 63//63 68//68
f 42//42 68//68 37//37
f 37//37 68//68 67//67
f 37//37 67//67 38//38
f 38//38 67//67 66//66
f 38//38 66//66 39//39
f 39//39 66//66 71//71
f 39//39 71//71 34//34
f 34//34 71//71 70//70
f 34//34 70//70 35//35
f 35//35 70//70 69//69
f 35//35 69//69 36//36
f 36//36 69//69 74//74
f 36//36 74//74 31//31
f 31//31 74//74 73//73
f 31//31 73//73 32//32
f 32//32 73//73 72//72
f 32//32 72//72 33//33
f 33//33 72//72 77//77
f 33//33 77//77 28//28
f 28//28 77//77 76//76
f 28//28 76//76 29//29
f 29//29 76//76 75//75
f 29//29 75//75 30//30
f 30//30 75//75 80//80
f 30//30 80//80 25//25
f 25//25 80//80 79//79
f 25//25 79//79 26//26
f 26//26 79//79 78//78
f 26//26 78//78 27//27
f 27//27 78//78 83//83
f 27//27 83//83 22//22
f 22//22 83//83 82//82
f 22//22 82//82 23//23
f 23//23 82//82 81//81
f 23//23 81//81 24//24
f 24//24 81//81 86//86
f 24//24 86//86 19//19
f 19//19 86//86 85//85
f 19//19 85//85 20//20
f 20//20 85//85 84//84
f 20//20 84//84 21//21
f 21//21 84//84 89//89
f 21//21 89//89 16//16
f 16//16 89//89 88//88
f 16//16 88//88 17//17
f 17//17 88//88 87//87
f 17//17 87//87 18//18
f 18//18 87//87 92//92
f 18//18 92//92 13//13
f 13//13 92//92 91//91
f 13//13 91//91 14//14
f 14//14 91//91 90//90
f 14//14 90//90 15//15
f 15//15 90//90 95//95
f 15//15 95//95 10//10
f 10//10 95//95 94//94
f 10//10 94//94 11//11
f 11//11 94//94 93//93
f 11//11 93//93 12//12
f 12//12 93//93 98//98
f 12//12 98//98 7//7
f 7//7 98//98 97//97
f 7//7 97//97 8//8
f 8//8 97//97 96//96
f 8//8 96//96 9//9
f 9//9 96//96 100//100
f 9//9 100//100 4//4
f 4//4 100//100 99//99
f 4//4 99//99 5//5
f 5//5 99//99 52//52
f 5//5 52//52 6//6
f 6//6 52//52 51//51
f 6//6 51//51 1//1
f 1//1 51//51 56//56
# 196 faces, 0 coords texture

# End of File
