# Blender v2.91.2 OBJ File: ''
# www.blender.org
mtllib cylinder.mtl
o cylinder
v 0.000663 -0.495984 0.495536
v 0.065034 -0.491975 0.495518
v 0.000663 -0.007612 0.493385
v -0.188241 -0.460292 0.495379
v -0.127023 -0.480012 0.495465
v -0.063709 -0.491975 0.495518
v -0.349533 -0.358434 0.494930
v -0.300416 -0.399000 0.495109
v -0.246357 -0.433140 0.495259
v -0.459638 -0.205297 0.494255
v -0.429802 -0.260780 0.494500
v -0.392899 -0.312107 0.494726
v -0.502462 -0.023265 0.493454
v -0.496269 -0.085556 0.493728
v -0.481915 -0.146567 0.493997
v -0.471747 0.161055 0.492642
v -0.490100 0.101062 0.492906
v -0.500395 0.039283 0.493178
v -0.371981 0.320722 0.491939
v -0.412199 0.271794 0.492154
v -0.445637 0.218279 0.492390
v -0.217747 0.432397 0.491447
v -0.273951 0.401688 0.491582
v -0.325645 0.364258 0.491747
v -0.031589 0.479757 0.491238
v -0.095564 0.471755 0.491273
v -0.157958 0.455881 0.491343
v 0.159283 0.455881 0.491343
v 0.096889 0.471755 0.491273
v 0.032915 0.479757 0.491238
v 0.326970 0.364258 0.491747
v 0.275276 0.401688 0.491582
v 0.219073 0.432397 0.491447
v 0.446962 0.218279 0.492390
v 0.413524 0.271794 0.492154
v 0.373307 0.320722 0.491939
v 0.501720 0.039283 0.493178
v 0.491425 0.101062 0.492906
v 0.473072 0.161055 0.492642
v 0.483240 -0.146567 0.493997
v 0.497594 -0.085556 0.493728
v 0.503788 -0.023265 0.493454
v 0.394224 -0.312107 0.494726
v 0.431128 -0.260780 0.494500
v 0.460963 -0.205297 0.494255
v 0.247682 -0.433140 0.495259
v 0.301742 -0.399000 0.495109
v 0.350858 -0.358434 0.494930
v 0.128348 -0.480012 0.495465
v 0.189566 -0.460292 0.495379
v 0.000663 -0.500354 -0.496564
v -0.063709 -0.496344 -0.496582
v 0.000663 -0.011981 -0.498715
v 0.189566 -0.464662 -0.496721
v 0.128348 -0.484381 -0.496635
v 0.065034 -0.496344 -0.496582
v 0.350858 -0.362803 -0.497170
v 0.301742 -0.403370 -0.496991
v 0.247682 -0.437509 -0.496841
v 0.460963 -0.209666 -0.497845
v 0.431128 -0.265150 -0.497600
v 0.394224 -0.316477 -0.497374
v 0.503788 -0.027634 -0.498646
v 0.497594 -0.089925 -0.498372
v 0.483240 -0.150937 -0.498103
v 0.473072 0.156685 -0.499458
v 0.491425 0.096692 -0.499194
v 0.501720 0.034914 -0.498922
v 0.373307 0.316352 -0.500161
v 0.413524 0.267425 -0.499946
v 0.446962 0.213910 -0.499710
v 0.219073 0.428027 -0.500653
v 0.275276 0.397318 -0.500518
v 0.326970 0.359888 -0.500353
v 0.032915 0.475388 -0.500862
v 0.096889 0.467385 -0.500827
v 0.159283 0.451511 -0.500757
v -0.157958 0.451511 -0.500757
v -0.095564 0.467385 -0.500827
v -0.031589 0.475388 -0.500862
v -0.325645 0.359888 -0.500353
v -0.273951 0.397318 -0.500518
v -0.217747 0.428027 -0.500653
v -0.445637 0.213910 -0.499710
v -0.412199 0.267425 -0.499946
v -0.371981 0.316352 -0.500161
v -0.500395 0.034914 -0.498922
v -0.490100 0.096692 -0.499194
v -0.471747 0.156685 -0.499458
v -0.481915 -0.150937 -0.498103
v -0.496269 -0.089925 -0.498372
v -0.502462 -0.027634 -0.498646
v -0.392899 -0.316477 -0.497374
v -0.429802 -0.265150 -0.497600
v -0.459638 -0.209666 -0.497845
v -0.246357 -0.437509 -0.496841
v -0.300416 -0.403370 -0.496991
v -0.349533 -0.362803 -0.497170
v -0.127023 -0.484381 -0.496635
v -0.188241 -0.464662 -0.496721
vn 0.0000 -0.7175 0.6965
vn 0.0895 -0.7120 0.6965
vn 0.0000 0.0044 1.0000
vn -0.2635 -0.6677 0.6962
vn -0.1777 -0.6953 0.6964
vn -0.0895 -0.7120 0.6965
vn -0.4937 -0.5223 0.6953
vn -0.4228 -0.5808 0.6957
vn -0.3457 -0.6294 0.6960
vn -0.6562 -0.2963 0.6940
vn -0.6116 -0.3790 0.6945
vn -0.5571 -0.4547 0.6949
vn -0.7210 -0.0208 0.6926
vn -0.7115 -0.1155 0.6931
vn -0.6898 -0.2079 0.6935
vn -0.6744 0.2588 0.6915
vn -0.7022 0.1682 0.6919
vn -0.7178 0.0744 0.6922
vn -0.5264 0.4957 0.6908
vn -0.5855 0.4239 0.6910
vn -0.6352 0.3445 0.6912
vn -0.3051 0.6560 0.6903
vn -0.3849 0.6125 0.6904
vn -0.4591 0.5588 0.6906
vn -0.0448 0.7222 0.6902
vn -0.1338 0.7111 0.6902
vn -0.2210 0.6890 0.6903
vn 0.2210 0.6890 0.6903
vn 0.1338 0.7111 0.6902
vn 0.0448 0.7222 0.6902
vn 0.4591 0.5588 0.6906
vn 0.3849 0.6125 0.6904
vn 0.3051 0.6560 0.6903
vn 0.6352 0.3445 0.6912
vn 0.5855 0.4239 0.6910
vn 0.5264 0.4957 0.6908
vn 0.7178 0.0744 0.6922
vn 0.7022 0.1682 0.6919
vn 0.6744 0.2588 0.6915
vn 0.6898 -0.2079 0.6935
vn 0.7115 -0.1155 0.6931
vn 0.7210 -0.0208 0.6926
vn 0.5571 -0.4547 0.6949
vn 0.6116 -0.3790 0.6945
vn 0.6562 -0.2963 0.6940
vn 0.3457 -0.6294 0.6960
vn 0.4228 -0.5808 0.6957
vn 0.4937 -0.5223 0.6953
vn 0.1777 -0.6953 0.6964
vn 0.2635 -0.6677 0.6962
vn 0.0000 -0.7236 -0.6902
vn -0.0895 -0.7181 -0.6902
vn -0.0000 -0.0044 -1.0000
vn 0.2635 -0.6738 -0.6903
vn 0.1777 -0.7014 -0.6902
vn 0.0895 -0.7181 -0.6902
vn 0.4937 -0.5284 -0.6907
vn 0.4228 -0.5869 -0.6905
vn 0.3457 -0.6355 -0.6904
vn 0.6562 -0.3024 -0.6914
vn 0.6116 -0.3851 -0.6911
vn 0.5571 -0.4608 -0.6909
vn 0.7210 -0.0269 -0.6924
vn 0.7115 -0.1216 -0.6920
vn 0.6898 -0.2140 -0.6917
vn 0.6744 0.2527 -0.6938
vn 0.7022 0.1621 -0.6933
vn 0.7178 0.0683 -0.6929
vn 0.5264 0.4896 -0.6951
vn 0.5855 0.4178 -0.6947
vn 0.6352 0.3384 -0.6942
vn 0.3051 0.6499 -0.6961
vn 0.3849 0.6063 -0.6958
vn 0.4591 0.5527 -0.6955
vn 0.0448 0.7161 -0.6965
vn 0.1338 0.7050 -0.6965
vn 0.2210 0.6829 -0.6963
vn -0.2210 0.6829 -0.6963
vn -0.1338 0.7050 -0.6965
vn -0.0448 0.7161 -0.6965
vn -0.4591 0.5527 -0.6955
vn -0.3849 0.6063 -0.6958
vn -0.3051 0.6499 -0.6961
vn -0.6352 0.3384 -0.6942
vn -0.5855 0.4178 -0.6947
vn -0.5264 0.4896 -0.6951
vn -0.7178 0.0683 -0.6929
vn -0.7022 0.1621 -0.6933
vn -0.6744 0.2527 -0.6938
vn -0.6898 -0.2140 -0.6917
vn -0.7115 -0.1216 -0.6920
vn -0.7210 -0.0269 -0.6924
vn -0.5571 -0.4608 -0.6909
vn -0.6116 -0.3851 -0.6911
vn -0.6562 -0.3024 -0.6914
vn -0.3457 -0.6355 -0.6904
vn -0.4228 -0.5869 -0.6905
vn -0.4937 -0.5284 -0.6907
vn -0.1777 -0.7014 -0.6902
vn -0.2635 -0.6738 -0.6903
usemtl Default_OBJ
s 1
f 1//1 2//2 3//3
f 4//4 5//5 3//3
f 3//3 5//5 6//6
f 3//3 6//6 1//1
f 7//7 8//8 3//3
f 3//3 8//8 9//9
f 3//3 9//9 4//4
f 10//10 11//11 3//3
f 3//3 11//11 12//12
f 3//3 12//12 7//7
f 13//13 14//14 3//3
f 3//3 14//14 15//15
f 3//3 15//15 10//10
f 16//16 17//17 3//3
f 3//3 17//17 18//18
f 3//3 18//18 13//13
f 19//19 20//20 3//3
f 3//3 20//20 21//21
f 3//3 21//21 16//16
f 22//22 23//23 3//3
f 3//3 23//23 24//24
f 3//3 24//24 19//19
f 25//25 26//26 3//3
f 3//3 26//26 27//27
f 3//3 27//27 22//22
f 28//28 29//29 3//3
f 3//3 29//29 30//30
f 3//3 30//30 25//25
f 31//31 32//32 3//3
f 3//3 32//32 33//33
f 3//3 33//33 28//28
f 34//34 35//35 3//3
f 3//3 35//35 36//36
f 3//3 36//36 31//31
f 37//37 38//38 3//3
f 3//3 38//38 39//39
f 3//3 39//39 34//34
f 40//40 41//41 3//3
f 3//3 41//41 42//42
f 3//3 42//42 37//37
f 43//43 44//44 3//3
f 3//3 44//44 45//45
f 3//3 45//45 40//40
f 46//46 47//47 3//3
f 3//3 47//47 48//48
f 3//3 48//48 43//43
f 2//2 49//49 3//3
f 3//3 49//49 50//50
f 3//3 50//50 46//46
f 51//51 52//52 53//53
f 54//54 55//55 53//53
f 53//53 55//55 56//56
f 53//53 56//56 51//51
f 57//57 58//58 53//53
f 53//53 58//58 59//59
f 53//53 59//59 54//54
f 60//60 61//61 53//53
f 53//53 61//61 62//62
f 53//53 62//62 57//57
f 63//63 64//64 53//53
f 53//53 64//64 65//65
f 53//53 65//65 60//60
f 66//66 67//67 53//53
f 53//53 67//67 68//68
f 53//53 68//68 63//63
f 69//69 70//70 53//53
f 53//53 70//70 71//71
f 53//53 71//71 66//66
f 72//72 73//73 53//53
f 53//53 73//73 74//74
f 53//53 74//74 69//69
f 75//75 76//76 53//53
f 53//53 76//76 77//77
f 53//53 77//77 72//72
f 78//78 79//79 53//53
f 53//53 79//79 80//80
f 53//53 80//80 75//75
f 81//81 82//82 53//53
f 53//53 82//82 83//83
f 53//53 83//83 78//78
f 84//84 85//85 53//53
f 53//53 85//85 86//86
f 53//53 86//86 81//81
f 87//87 88//88 53//53
f 53//53 88//88 89//89
f 53//53 89//89 84//84
f 90//90 91//91 53//53
f 53//53 91//91 92//92
f 53//53 92//92 87//87
f 93//93 94//94 53//53
f 53//53 94//94 95//95
f 53//53 95//95 90//90
f 96//96 97//97 53//53
f 53//53 97//97 98//98
f 53//53 98//98 93//93
f 52//52 99//99 53//53
f 53//53 99//99 100//100
f 53//53 100//100 96//96
f 1//1 56//56 2//2
f 2//2 56//56 55//55
f 2//2 55//55 49//49
f 49//49 55//55 54//54
f 49//49 54//54 50//50
f 50//50 54//54 59//59
f 50//50 59//59 46//46
f 46//46 59//59 58//58
f 46//46 58//58 47//47
f 47//47 58//58 57//57
f 47//47 57//57 48//48
f 48//48 57//57 62//62
f 48//48 62//62 43//43
f 43//43 62//62 61//61
f 43//43 61//61 44//44
f 44//44 61//61 60//60
f 44//44 60//60 45//45
f 45//45 60//60 65//65
f 45//45 65//65 40//40
f 40//40 65//65 64//64
f 40//40 64//64 41//41
f 41//41 64//64 63//63
f 41//41 63//63 42//42
f 42//42 63//63 68//68
f 42//42 68//68 37//37
f 37//37 68//68 67//67
f 37//37 67//67 38//38
f 38//38 67//67 66//66
f 38//38 66//66 39//39
f 39//39 66//66 71//71
f 39//39 71//71 34//34
f 34//34 71//71 70//70
f 34//34 70//70 35//35
f 35//35 70//70 69//69
f 35//35 69//69 36//36
f 36//36 69//69 74//74
f 36//36 74//74 31//31
f 31//31 74//74 73//73
f 31//31 73//73 32//32
f 32//32 73//73 72//72
f 32//32 72//72 33//33
f 33//33 72//72 77//77
f 33//33 77//77 28//28
f 28//28 77//77 76//76
f 28//28 76//76 29//29
f 29//29 76//76 75//75
f 29//29 75//75 30//30
f 30//30 75//75 80//80
f 30//30 80//80 25//25
f 25//25 80//80 79//79
f 25//25 79//79 26//26
f 26//26 79//79 78//78
f 26//26 78//78 27//27
f 27//27 78//78 83//83
f 27//27 83//83 22//22
f 22//22 83//83 82//82
f 22//22 82//82 23//23
f 23//23 82//82 81//81
f 23//23 81//81 24//24
f 24//24 81//81 86//86
f 24//24 86//86 19//19
f 19//19 86//86 85//85
f 19//19 85//85 20//20
f 20//20 85//85 84//84
f 20//20 84//84 21//21
f 21//21 84//84 89//89
f 21//21 89//89 16//16
f 16//16 89//89 88//88
f 16//16 88//88 17//17
f 17//17 88//88 87//87
f 17//17 87//87 18//18
f 18//18 87//87 92//92
f 18//18 92//92 13//13
f 13//13 92//92 91//91
f 13//13 91//91 14//14
f 14//14 91//91 90//90
f 14//14 90//90 15//15
f 15//15 90//90 95//95
f 15//15 95//95 10//10
f 10//10 95//95 94//94
f 10//10 94//94 11//11
f 11//11 94//94 93//93
f 11//11 93//93 12//12
f 12//12 93//93 98//98
f 12//12 98//98 7//7
f 7//7 98//98 97//97
f 7//7 97//97 8//8
f 8//8 97//97 96//96
f 8//8 96//96 9//9
f 9//9 96//96 100//100
f 9//9 100//100 4//4
f 4//4 100//100 99//99
f 4//4 99//99 5//5
f 5//5 99//99 52//52
f 5//5 52//52 6//6
f 6//6 52//52 51//51
f 6//6 51//51 1//1
f 1//1 51//51 56//56
