# Blender v2.91.2 OBJ File: ''
# www.blender.org
mtllib l_joint.mtl
o L_joint.001
v 0.596263 0.572980 -0.492960
v 0.596263 -0.452607 -0.503950
v -0.723731 0.572980 -0.492960
v -0.723731 -0.452607 -0.503950
v 0.596263 0.568873 -0.109733
v 0.596263 -0.456714 -0.120723
v -0.182195 0.568873 -0.109733
v -0.182195 -0.456714 -0.120723
v -0.182195 0.556496 1.045344
v -0.182195 -0.469091 1.034354
v -0.723731 0.556496 1.045344
v -0.723731 -0.469091 1.034354
vn 0.5774 0.5835 -0.5711
vn 0.5774 -0.5711 -0.5835
vn -0.5774 0.5835 -0.5711
vn -0.5774 -0.5711 -0.5835
vn 0.5774 0.5711 0.5835
vn 0.5774 -0.5835 0.5711
vn 0.3015 0.9013 0.3112
vn 0.3015 -0.9077 0.2918
vn -0.5774 0.5711 0.5835
vn -0.5774 -0.5835 0.5711
usemtl Default_OBJ.002
s 1
f 1//1 2//2 3//3
f 2//2 4//4 3//3
f 5//5 6//6 1//1
f 6//6 2//2 1//1
f 7//7 8//8 5//5
f 8//8 6//6 5//5
f 9//5 10//6 7//7
f 10//6 8//8 7//7
f 11//9 12//10 9//5
f 12//10 10//6 9//5
f 3//3 4//4 11//9
f 4//4 12//10 11//9
f 9//5 7//7 11//9
f 7//7 3//3 11//9
f 7//7 5//5 3//3
f 5//5 1//1 3//3
f 6//6 8//8 2//2
f 8//8 4//4 2//2
f 8//8 10//6 4//4
f 10//6 12//10 4//4
