# Blender v2.91.2 OBJ File: ''
# www.blender.org
mtllib triangular prism.mtl
o triangular_prism
v -0.472888 -0.508391 -0.351807
v -0.472888 -0.508391 0.643223
v -0.472888 0.495890 -0.351807
v -0.472888 0.495890 0.643223
v 0.536726 -0.508391 -0.351807
v 0.536726 0.495890 -0.351807
vn -0.5774 -0.5774 -0.5774
vn -0.3231 -0.5471 0.7722
vn -0.5774 0.5774 -0.5774
vn -0.3231 0.5471 0.7722
vn 0.7747 -0.5467 -0.3176
vn 0.7747 0.5467 -0.3176
usemtl Default_OBJ
s 1
f 1//1 2//2 3//3
f 3//3 2//2 4//4
f 5//5 1//1 6//6
f 6//6 1//1 3//3
f 2//2 5//5 4//4
f 4//4 5//5 6//6
f 1//1 5//5 2//2
f 4//4 6//6 3//3
